<?xml version="1.0" standalone="no"?><!DOCTYPE svg PUBLIC "-//W3C//DTD SVG 1.1//EN" "http://www.w3.org/Graphics/SVG/1.1/DTD/svg11.dtd"><svg class="icon" viewBox="0 0 1024 1024" version="1.1" xmlns="http://www.w3.org/2000/svg"  width="200" height="200"><path d="M811.5 885.4h-673V210.8h423.3v-74.6H64V960h821.9V469h-74.4v416.4zM663 222.4L323.1 562.7l-1.2-0.5-1.3 3-2.4 2.4 0.9 0.9L215.7 805l240.4-98.8 1 1 2.5-2.5 342.3-343.1L663 222.4zM431.5 662.5l-121.1 49.7 51.9-118.3L663 292.5l68.6 69.2-300.1 300.8zM935.1 93.1l-4.1-4.2c-18.6-18.7-45.5-27.3-73.6-24.4-26.9 2.9-52.9 15.7-73.2 36.1l-41.8 41.8 35.1 35.2 41.8-41.4c12.4-12.4 28.1-20.3 43.4-21.9 13.2-1.7 25.2 2.1 33.1 9.9l4.1 4.1c7.9 7.9 11.2 19.5 9.9 33.2-1.7 15.3-9.5 31.1-21.9 43.5l-41.8 41.9 35.1 35.2 42.2-41.9c20.3-20.3 33.1-46.4 36-73.3 2.9-28.6-5.7-55.1-24.3-73.8z" /></svg>
