<svg class="icon" viewBox="0 0 1024 1024" version="1.1" xmlns="http://www.w3.org/2000/svg" width="128" height="128"><path d="M288 224h448a64 64 0 0 1 64 64v320a64 64 0 0 1-64 64H288a64 64 0 0 1-64-64V288a64 64 0 0 1 64-64z m0 64v320h448V288H288zM256 736h512a32 32 0 0 1 0 64H256a32 32 0 0 1 0-64z m256-288a32 32 0 0 1 32 32v32a32 32 0 1 1-64 0v-32a32 32 0 0 1 32-32z m128-32a32 32 0 0 1 32 32v64a32 32 0 0 1-64 0v-64a32 32 0 0 1 32-32z m-256-64a32 32 0 0 1 32 32v128a32 32 0 1 1-64 0v-128a32 32 0 0 1 32-32z"/></svg>
