<svg class="icon" viewBox="0 0 1024 1024" version="1.1" xmlns="http://www.w3.org/2000/svg" width="128" height="128"><path d="M955.072 334.336a111.232 111.232 0 0 1-65.088 32.512 375.424 375.424 0 0 1-241.152 449.6 109.632 109.632 0 0 1 9.792 72 446.72 446.72 0 0 0 296.448-554.112z m-515.84 531.968c0-13.504 2.624-26.368 6.976-38.4a375.232 375.232 0 0 1-292.288-406.144c-1.856 0-3.904 0.256-5.76 0.256-23.744 0-45.76-7.488-63.744-20.096a446.784 446.784 0 0 0 360.256 498.624 112.128 112.128 0 0 1-5.44-34.24z m87.744-779.84c100.864 0 192.384 39.872 260.032 104.768 14.528-19.776 35.648-34.368 60.032-41.024a445.12 445.12 0 0 0-320-135.232 445.632 445.632 0 0 0-363.136 186.88c25.152 3.52 47.488 15.488 64.256 33.024a374.272 374.272 0 0 1 298.816-148.416z" /><path d="M549.952 723.712a142.72 142.72 0 1 0 0.064 285.44 142.72 142.72 0 0 0-0.064-285.44z m0 215.488a72.832 72.832 0 1 1 0-145.792 72.96 72.96 0 1 1 0 145.792z m325.888-824.768a142.592 142.592 0 1 0 0 285.248 142.72 142.72 0 0 0 0-285.248z m0 215.488a72.832 72.832 0 1 1-0.064-145.728 72.832 72.832 0 0 1 0.064 145.728z m-727.616-161.344a142.656 142.656 0 1 0-0.192 285.44 142.656 142.656 0 0 0 0.192-285.44z m0 215.616a72.96 72.96 0 1 1-0.064-145.856 72.96 72.96 0 0 1 0.064 145.856z" /></svg>
