<svg  class="icon" viewBox="0 0 1365 1024" version="1.1" xmlns="http://www.w3.org/2000/svg" width="266.6015625" height="200"><path d="M964.266667 384h170.666666a42.666667 42.666667 0 1 1 0 85.333333h-170.666666a42.666667 42.666667 0 1 1 0-85.333333z m0 170.666667h170.666666a42.666667 42.666667 0 1 1 0 85.333333h-170.666666a42.666667 42.666667 0 1 1 0-85.333333z"></path><path d="M213.333333 256h85.333334v520.277333h-85.333334V256z m187.306667 0h190.208c84.48 0 147.882667 23.296 191.658667 69.973333 41.472 43.690667 62.634667 107.093333 62.634666 190.208 0 82.346667-21.162667 145.749333-62.634666 190.208-43.776 46.592-107.178667 69.973333-191.658667 69.973334h-190.293333V256z m85.248 72.874667v374.613333h88.917333c64.853333 0 112.213333-15.36 142.08-45.226667 29.184-30.634667 43.690667-77.994667 43.690667-142.08 0-65.621333-14.506667-113.749333-43.690667-142.848-29.866667-29.866667-77.226667-44.458667-142.08-44.458666H485.888z" /></svg>