<svg t="1611041913410" class="icon" viewBox="0 0 1024 1024" version="1.1" xmlns="http://www.w3.org/2000/svg" p-id="2822" width="200" height="200"><path d="M852.906667 149.333333a21.610667 21.610667 0 0 1 21.546666 21.333334v323.626666a21.333333 21.333333 0 0 1-6.4 15.146667L509.013333 868.437333a20.992 20.992 0 0 1-15.146666 6.272 21.610667 21.610667 0 0 1-15.146667-6.272L155.093333 544.810667a21.482667 21.482667 0 0 1 0-30.272L514.133333 155.733333a21.333333 21.333333 0 0 1 15.146667-6.272h323.626667m0-64H529.28a85.333333 85.333333 0 0 0-60.373333 25.024L109.866667 469.482667a85.504 85.504 0 0 0 0 120.810666l323.626666 323.605334a85.333333 85.333333 0 0 0 120.746667 0l359.04-358.997334a85.632 85.632 0 0 0 25.173333-60.394666V170.88a85.546667 85.546667 0 0 0-85.546666-85.333333z" fill="#333333" p-id="2823"></path><path d="M672 469.333333a117.333333 117.333333 0 1 1 117.333333-117.333333 117.333333 117.333333 0 0 1-117.333333 117.333333z m0-170.666666a53.333333 53.333333 0 1 0 53.333333 53.333333 53.333333 53.333333 0 0 0-53.333333-53.333333z" fill="#FF9C00" p-id="2824"></path></svg>
