<svg class="icon" viewBox="0 0 1024 1024" version="1.1" xmlns="http://www.w3.org/2000/svg"  width="128" height="128"><path d="M307.498667 0c-20.650667 0-37.418667 4.352-50.432 12.8-13.013333 8.533333-19.626667 19.754667-19.626667 33.28v930.517333c0 11.818667 6.784 22.528 20.309333 32.426667 13.44 9.984 29.994667 14.976 49.749334 14.976 18.901333 0 35.413333-4.992 49.834666-14.933333 14.293333-9.856 21.589333-20.650667 21.589334-32.469334V46.08c0-13.610667-6.954667-24.576-20.906667-33.28C344.064 4.266667 327.296 0 307.498667 0z m406.314666 369.578667c-20.608 0-37.162667 4.181333-49.834666 12.8l-189.397334 118.741333c-8.490667 7.936-12.117333 20.010667-10.538666 36.48 1.450667 16.341333 8.96 31.872 22.357333 46.506667 13.397333 14.805333 28.416 24.021333 45.568 27.946666 16.896 3.84 29.738667 1.749333 38.229333-6.101333l74.88-46.72v417.365333c0 11.818667 6.528 22.528 19.669334 32.426667 12.8 9.984 29.312 14.976 49.066666 14.976 19.754667 0 36.821333-4.992 51.157334-14.933333 14.378667-9.941333 21.589333-20.650667 21.589333-32.469334V415.530667c0-13.653333-7.04-24.661333-20.906667-33.109334-13.866667-8.661333-31.146667-12.842667-51.84-12.842666z" /></svg>
