<svg class="icon" viewBox="0 0 1024 1024" version="1.1" xmlns="http://www.w3.org/2000/svg" width="200" height="200"><path d="M626.967273 532.712727a322.327273 322.327273 0 0 1 12.101818-32.814545A239.709091 239.709091 0 1 0 372.363636 481.978182c21.410909 43.752727 31.185455 82.152727 26.298182 104.261818a124.741818 124.741818 0 0 1-69.818182 73.541818A122.181818 122.181818 0 0 1 214.341818 651.636364a34.909091 34.909091 0 0 0-44.218182 8.378181c-27.461818 33.512727-91.927273 116.363636-101.003636 148.247273a34.909091 34.909091 0 0 0 33.512727 44.218182h349.090909a34.909091 34.909091 0 1 0 0-69.818182H164.072727c12.567273-17.454545 27.694545-37.701818 43.054546-57.250909a188.276364 188.276364 0 0 0 148.945454 0 192 192 0 0 0 109.381818-123.578182c11.869091-51.2-12.8-114.734545-35.84-158.72a33.512727 33.512727 0 0 0-10.472727-12.334545 169.658182 169.658182 0 1 1 176.872727 13.265454 35.141818 35.141818 0 0 0-15.825454 16.058182 408.901818 408.901818 0 0 0-20.014546 51.898182 34.909091 34.909091 0 1 0 66.792728 20.014545zM501.76 900.887273H102.632727a34.909091 34.909091 0 0 0 0 69.818182h399.127273a34.909091 34.909091 0 0 0 0-69.818182zM926.487273 792.669091l-74.472728-128.930909a28.858182 28.858182 0 0 0-25.134545-14.429091h-148.945455a28.858182 28.858182 0 0 0-25.134545 14.429091l-74.472727 128.930909a29.556364 29.556364 0 0 0 0 29.090909l74.472727 128.930909a29.323636 29.323636 0 0 0 25.134545 14.429091h148.945455a29.323636 29.323636 0 0 0 25.134545-14.429091l74.472728-128.930909a29.556364 29.556364 0 0 0 0-29.090909z m-116.363637 114.269091h-116.363636l-57.483636-99.84 57.483636-99.607273h116.363636l57.483637 99.607273z" /><path d="M752.407273 734.487273a72.843636 72.843636 0 1 0 72.843636 72.610909 72.843636 72.843636 0 0 0-72.843636-72.610909z m0 87.272727a14.661818 14.661818 0 1 1 14.661818-14.661818 14.661818 14.661818 0 0 1-14.661818 14.661818z" /></svg>
