<svg class="icon" viewBox="0 0 1024 1024" version="1.1" xmlns="http://www.w3.org/2000/svg"  width="200" height="200"><path d="M915.2 872.5H108.8c-17.9 0-29.9 17.5-29.9 43.7 0 26.3 11.9 43.8 29.9 43.8h806.4c17.9 0 29.9-17.5 29.9-43.8 0-26.2-12-43.7-29.9-43.7z m-716.8-61.8c26.3 0 43.9-11.9 43.9-29.9V452.3c0-17.9-17.5-29.9-43.9-29.9-26.3 0-43.9 11.9-43.9 29.9v328.5c0 17.9 22 29.9 43.9 29.9z m209.1 0c26.2 0 43.6-11.9 43.6-29.9V93.9c0-17.9-17.5-29.9-43.6-29.9-26.2 0-43.6 11.9-43.6 29.9v686.9c-0.1 17.9 21.7 29.9 43.6 29.9z m179.2 0c27.9 0 46.4-11.9 46.4-29.9V302.9c0-17.9-18.6-29.9-46.4-29.9-27.9 0-46.4 11.9-46.4 29.9v477.9c-0.1 17.9 23.1 29.9 46.4 29.9z m209 0c27 0 45-11.9 45-29.9V422.4c0-17.9-18-29.9-45-29.9s-45 11.9-45 29.9v358.4c0 17.9 22.5 29.9 45 29.9z" /></svg>
