<svg class="icon" viewBox="0 0 1024 1024" version="1.1" xmlns="http://www.w3.org/2000/svg" width="200" height="200"><path d="M768 320h-64v-32c0-123.52-100.48-224-224-224S256 164.48 256 288v32h-64c-70.4 0-128 57.6-128 128v384c0 70.4 57.6 128 128 128h576c70.4 0 128-57.6 128-128V448c0-70.4-57.6-128-128-128z m-448-32c0-88.32 71.68-160 160-160s160 71.68 160 160v32H320v-32z m512 544c0 35.2-28.8 64-64 64H192c-35.2 0-64-28.8-64-64V448c0-35.2 28.8-64 64-64h64v96c0 17.92 14.08 32 32 32s32-14.08 32-32v-96h320v96c0 17.92 14.08 32 32 32s32-14.08 32-32v-96h64c35.2 0 64 28.8 64 64v384z" /></svg>
