<svg class="icon" viewBox="0 0 1024 1024" version="1.1" xmlns="http://www.w3.org/2000/svg"  width="200" height="200"><path d="M887.376 481.053a29.057 29.057 0 0 0-29.127 29.127c0 189.084-153.767 342.85-342.85 342.85s-342.85-153.767-342.85-342.85c0-16.142-12.986-29.127-29.127-29.127s-29.127 12.986-29.127 29.127c0 54.128 10.559 106.678 31.554 156.194 20.146 47.818 49.152 90.658 85.925 127.553 36.773 36.773 79.735 65.778 127.553 85.925 49.516 20.875 102.066 31.554 156.194 31.554 54.128 0 106.678-10.559 156.194-31.554 47.818-20.146 90.658-49.152 127.553-85.925 36.773-36.773 65.778-79.735 85.925-127.553 20.875-49.516 31.554-102.066 31.554-156.194-0.242-16.142-13.229-29.127-29.37-29.127z"/><path d="M331.898 349.131c7.404 0 14.928-2.791 20.631-8.496l130.222-130.222V693.68c0 16.142 12.986 29.127 29.127 29.127s29.127-12.986 29.127-29.127V210.413l130.222 130.222c5.703 5.703 13.107 8.496 20.631 8.496s14.928-2.791 20.631-8.496c11.408-11.408 11.408-29.855 0-41.142L532.75 119.633c-5.703-5.703-13.349-8.617-20.875-8.496-7.524 0-15.05 2.791-20.753 8.496l-179.739 179.86c-11.408 11.408-11.408 29.855 0 41.142 5.583 5.703 13.107 8.496 20.511 8.496z"/></svg>