<svg class="icon" viewBox="0 0 1024 1024" xmlns="http://www.w3.org/2000/svg" width="200" height="200"><path d="M424.024 766.098c-91.619 0-177.754-35.679-242.538-100.464-133.735-133.737-133.735-351.344 0-485.078C246.27 115.772 332.405 80.094 424.024 80.094s177.754 35.677 242.539 100.462c133.733 133.735 133.735 351.34 0 485.078-64.785 64.783-150.922 100.464-242.539 100.464zm0-570.013c-60.637 0-117.643 23.613-160.523 66.489-88.512 88.51-88.51 232.53 0 321.04 42.876 42.876 99.885 66.491 160.523 66.491s117.643-23.614 160.523-66.491c88.51-88.51 88.51-232.53 0-321.04-42.876-42.876-99.885-66.489-160.523-66.489z"/><path d="M886.838 943.904c-14.842 0-29.684-5.663-41.01-16.986L584.542 665.633c-22.647-22.649-22.647-59.369 0-82.018 22.647-22.647 59.37-22.647 82.018 0l261.286 261.286c22.647 22.649 22.647 59.369 0 82.018-11.325 11.322-26.167 16.985-41.01 16.985z"/></svg>