<svg class="icon" viewBox="0 0 1024 1024" version="1.1" xmlns="http://www.w3.org/2000/svg" width="200" height="200"><path d="M805.64 626.15a30 30 0 0 0 0-60h-92.07v-364.3a30 30 0 0 0-30-30H583.15a30 30 0 0 0 0 60h70.42v334.3H561.5a30 30 0 0 0 0 60z"/><path d="M928 725H96a90.1 90.1 0 0 1-90-90V163a90.1 90.1 0 0 1 90-90h832a90.1 90.1 0 0 1 90 90v472a90.1 90.1 0 0 1-90 90zM96 133a30 30 0 0 0-30 30v472a30 30 0 0 0 30 30h832a30 30 0 0 0 30-30V163a30 30 0 0 0-30-30z"/><path d="M374 639H269a90.1 90.1 0 0 1-90-90V249a90.1 90.1 0 0 1 90-90h105a90.1 90.1 0 0 1 90 90v300a90.1 90.1 0 0 1-90 90zM269 219a30 30 0 0 0-30 30v300a30 30 0 0 0 30 30h105a30 30 0 0 0 30-30V249a30 30 0 0 0-30-30zM884.5 985h-745a90.1 90.1 0 0 1-90-90v-50a90.1 90.1 0 0 1 90-90h745a90.1 90.1 0 0 1 90 90v50a90.1 90.1 0 0 1-90 90z m-745-170a30 30 0 0 0-30 30v50a30 30 0 0 0 30 30h745a30 30 0 0 0 30-30v-50a30 30 0 0 0-30-30z"/></svg>