<svg class="icon" viewBox="0 0 1024 1024" version="1.1" xmlns="http://www.w3.org/2000/svg" width="128" height="128"><path d="M574.272 107.264h-124.608a93.44 93.44 0 0 0 0 186.688h124.608a93.44 93.44 0 0 0 93.376-93.312 93.44 93.44 0 0 0-93.376-93.376z m0 124.416h-124.608a31.04 31.04 0 1 1 0-62.08h124.608a31.04 31.04 0 1 1 0 62.08z m0 186.88h-124.608a93.44 93.44 0 0 0 0 186.88h124.608a93.44 93.44 0 0 0 0-186.88z m0 124.608h-124.608a31.168 31.168 0 0 1 0-62.272h124.608a31.168 31.168 0 0 1 0 62.272z m0 186.88h-124.608a93.44 93.44 0 0 0-93.376 93.312 93.44 93.44 0 0 0 93.376 93.376h124.608a93.44 93.44 0 0 0 93.376-93.376 93.44 93.44 0 0 0-93.376-93.312z m0 124.352h-124.608a31.168 31.168 0 0 1 0-62.272h124.608a31.168 31.168 0 0 1 0 62.272z m-342.528-62.272c-33.216 0-64.512-12.8-88.064-36.352a123.712 123.712 0 0 1-36.544-88.064c0-33.472 12.992-64.704 36.544-88.256a123.648 123.648 0 0 1 88.064-36.352h62.272v-62.272h-62.272a186.88 186.88 0 1 0 0 373.568v62.336l93.312-93.376-93.312-93.312v62.08z m560.448-622.528h-62.272v62.08h62.272c33.28 0 64.512 12.992 88.064 36.544 23.552 23.552 36.544 54.784 36.544 88.064a124.288 124.288 0 0 1-124.608 124.608v-62.272l-93.312 93.312 93.312 93.568v-62.336a186.88 186.88 0 1 0 0-373.568z" /></svg>
