<svg class="icon" viewBox="0 0 1025 1024" version="1.1" xmlns="http://www.w3.org/2000/svg" width="200" height="200"><path d="M327.800294 518.014684c-12.781204-12.781204-31.577093-12.781204-44.358297 0-12.781204 12.781204-12.781204 31.577093 0 44.358297l158.637298 139.089574c6.014684 6.014684 12.781204 6.014684 18.795889 6.014684s18.795888-6.014684 18.795888-12.781204l266.14978-329.303965c12.781204-12.781204 6.014684-31.577093-6.014685-44.358296-12.781204-12.781204-31.577093-6.014684-44.358296 6.014684L448.093979 632.293686l-120.293685-114.279002z m0 0" fill="" /><path d="M513.503671 1022.496329c-281.938326 0-511.248164-229.309838-511.248164-511.248165s229.309838-511.248164 511.248164-511.248164 511.248164 229.309838 511.248165 511.248164-229.309838 511.248164-511.248165 511.248165zM513.503671 60.898678c-248.857562 0-451.101322 202.243759-451.101322 451.101322s202.243759 451.101322 451.101322 451.101322 451.101322-202.243759 451.101322-451.101322-202.243759-451.101322-451.101322-451.101322z" /></svg>