<svg class="icon" viewBox="0 0 1024 1024" xmlns="http://www.w3.org/2000/svg" width="128" height="128"><path d="M448 256h469.333a21.333 21.333 0 000-42.667H448A21.333 21.333 0 00448 256zm469.333 128H448a21.333 21.333 0 000 42.667h469.333a21.333 21.333 0 000-42.667zm0 213.333H448A21.333 21.333 0 00448 640h469.333a21.333 21.333 0 000-42.667zm0 170.667H448a21.333 21.333 0 000 42.667h469.333a21.333 21.333 0 000-42.667zM320 170.667H149.333a64 64 0 00-64 64v170.666a64 64 0 0064 64H320a64 64 0 0064-64V234.667a64 64 0 00-64-64zm21.333 234.666A21.333 21.333 0 01320 426.667H149.333A21.333 21.333 0 01128 405.333V234.667a21.333 21.333 0 0121.333-21.334H320a21.333 21.333 0 0121.333 21.334zM320 554.667H149.333a64 64 0 00-64 64v170.666a64 64 0 0064 64H320a64 64 0 0064-64V618.667a64 64 0 00-64-64zm21.333 234.666A21.333 21.333 0 01320 810.667H149.333A21.333 21.333 0 01128 789.333V618.667a21.333 21.333 0 0121.333-21.334H320a21.333 21.333 0 0121.333 21.334z"/></svg>