<svg t="1611042032217" class="icon" viewBox="0 0 1024 1024" version="1.1" xmlns="http://www.w3.org/2000/svg" p-id="2968" width="200" height="200"><path d="M722.986667 192a21.056 21.056 0 0 1 19.2 12.245333l130.773333 277.994667a21.333333 21.333333 0 0 1-4.906667 24.832L519.04 826.453333a21.333333 21.333333 0 0 1-14.506667 5.589334 21.504 21.504 0 0 1-14.72-5.866667L155.733333 508.309333a21.333333 21.333333 0 0 1-4.48-24.725333l134.613334-279.466667a21.568 21.568 0 0 1 19.2-12.053333h417.92m0-64H305.066667a85.44 85.44 0 0 0-76.8 48.256L93.653333 455.893333a85.44 85.44 0 0 0 18.133334 98.88l334.08 317.866667a85.333333 85.333333 0 0 0 116.266666 1.130667l349.013334-319.402667a85.610667 85.610667 0 0 0 19.626666-99.285333L800.213333 177.088a85.333333 85.333333 0 0 0-77.226666-49.066667z" fill="#333333" p-id="2969"></path><path d="M512 704.149333a62.848 62.848 0 0 1-49.493333-24.362666l-156.373334-198.592a33.92 33.92 0 0 1 4.48-46.677334 31.210667 31.210667 0 0 1 45.013334 4.693334L512 637.866667l156.373333-198.592a31.232 31.232 0 0 1 45.013334-4.693334 33.92 33.92 0 0 1 4.48 46.677334l-156.373334 198.592A62.848 62.848 0 0 1 512 704.149333z" fill="#FF9C00" p-id="2970"></path></svg>
