<svg t="1611041795532" class="icon" viewBox="0 0 1024 1024" version="1.1" xmlns="http://www.w3.org/2000/svg" p-id="2676" width="200" height="200"><path d="M512 192a20.672 20.672 0 0 1 18.517333 10.666667l341.333334 597.162666A21.333333 21.333333 0 0 1 853.333333 832H170.666667a21.333333 21.333333 0 0 1-18.517334-32l341.333334-597.162667A20.672 20.672 0 0 1 512 192m0-64a84.544 84.544 0 0 0-74.090667 43.008l-341.333333 597.162667A85.333333 85.333333 0 0 0 170.666667 896h682.666666a85.333333 85.333333 0 0 0 74.090667-127.786667l-341.333333-597.162666A84.544 84.544 0 0 0 512 128z" fill="#333333" p-id="2677"></path><path d="M512 768a42.666667 42.666667 0 1 1 42.666667-42.666667 42.666667 42.666667 0 0 1-42.666667 42.666667z m0-128a32 32 0 0 1-32-32v-192a32 32 0 0 1 64 0v192A32 32 0 0 1 512 640z" fill="#FF9C00" p-id="2678"></path></svg>
