<svg class="icon" viewBox="0 0 1024 1024" xmlns="http://www.w3.org/2000/svg" width="200" height="200"><defs><style/></defs><path d="M460.8 644.267L324.267 507.733c-8.534-17.066-29.867-21.333-51.2-12.8-17.067 8.534-21.334 29.867-12.8 51.2L422.4 721.067c8.533 12.8 17.067 17.066 29.867 17.066 4.266 0 12.8 0 17.066-4.266 4.267 0 8.534-8.534 8.534-8.534L772.267 384c12.8-12.8 12.8-38.4 0-51.2-12.8-12.8-38.4-12.8-51.2 0L460.8 644.267zM512 0C230.4 0 0 230.4 0 512s230.4 512 512 512 512-230.4 512-512S793.6 0 512 0zm311.467 823.467c-38.4 38.4-89.6 72.533-140.8 93.866C627.2 938.667 571.733 951.467 512 951.467s-115.2-12.8-170.667-34.134c-51.2-21.333-98.133-55.466-140.8-93.866-38.4-42.667-72.533-89.6-93.866-140.8C85.333 627.2 72.533 571.733 72.533 512s12.8-115.2 34.134-170.667c21.333-51.2 55.466-98.133 93.866-140.8 42.667-38.4 89.6-72.533 140.8-93.866C396.8 85.333 452.267 72.533 512 72.533s115.2 12.8 170.667 34.134c51.2 21.333 98.133 55.466 140.8 93.866 38.4 42.667 72.533 89.6 93.866 140.8C938.667 396.8 951.467 452.267 951.467 512s-12.8 115.2-34.134 170.667c-21.333 51.2-55.466 98.133-93.866 140.8z" fill="#66C23A" /></svg>
