<svg class="icon" viewBox="0 0 1024 1024" xmlns="http://www.w3.org/2000/svg" width="200" height="200"><defs><style/></defs><path d="M512 1024C230.4 1024 0 793.6 0 512S230.4 0 512 0s512 230.4 512 512-230.4 512-512 512zm0-938.667c-234.667 0-426.667 192-426.667 426.667s192 426.667 426.667 426.667 426.667-192 426.667-426.667S746.667 85.333 512 85.333zm0 725.334c-25.6 0-42.667-17.067-42.667-42.667V469.333c0-25.6 17.067-42.666 42.667-42.666s42.667 17.066 42.667 42.666V768c0 21.333-17.067 42.667-42.667 42.667zm0-567.467c25.6 0 46.933 21.333 46.933 46.933S537.6 337.067 512 337.067s-46.933-21.334-46.933-46.934S486.4 243.2 512 243.2z"/></svg>