<?xml version="1.0" standalone="no"?><!DOCTYPE svg PUBLIC "-//W3C//DTD SVG 1.1//EN" "http://www.w3.org/Graphics/SVG/1.1/DTD/svg11.dtd"><svg t="1602665485936" class="icon" viewBox="0 0 1024 1024" version="1.1" xmlns="http://www.w3.org/2000/svg" p-id="1176" xmlns:xlink="http://www.w3.org/1999/xlink" width="200" height="200"><defs><style type="text/css"></style></defs><path d="M987.135828 219.136262h-110.591938V36.864366A36.709413 36.709413 0 0 0 839.679911 0.000386H36.864366A36.709413 36.709413 0 0 0 0.000386 36.864366v950.271462A36.709413 36.709413 0 0 0 36.864366 1023.999807h950.271462A36.709413 36.709413 0 0 0 1023.999807 987.135828V256.000242a36.709413 36.709413 0 0 0-36.863979-36.86398z m-182.271897 731.135587H73.728345V73.728345h731.135586v876.543504z m145.407918 0h-73.727959V292.864221h73.727959v657.407628zM219.136262 299.008217c24.575986 0 43.007976-20.479988 43.007976-43.007975 0-24.575986-20.479988-43.007976-43.007976-43.007976s-43.007976 20.479988-43.007975 43.007976c0 24.575986 18.43199 43.007976 43.007975 43.007975z m0 184.319896c24.575986 0 43.007976-20.479988 43.007976-43.007976 0-24.575986-20.479988-43.007976-43.007976-43.007975s-43.007976 20.479988-43.007975 43.007975 18.43199 43.007976 43.007975 43.007976z m0 182.271897c24.575986 0 43.007976-20.479988 43.007976-43.007976 0-24.575986-20.479988-43.007976-43.007976-43.007976s-43.007976 20.479988-43.007975 43.007976 18.43199 43.007976 43.007975 43.007976z m0 182.271896c24.575986 0 43.007976-20.479988 43.007976-43.007975 0-24.575986-20.479988-43.007976-43.007976-43.007976s-43.007976 20.479988-43.007975 43.007976c0 24.575986 18.43199 43.007976 43.007975 43.007975z m147.455917-555.007685h292.863834a36.709413 36.709413 0 0 0 36.863979-36.863979 36.709413 36.709413 0 0 0-36.863979-36.86398H366.592179a36.709413 36.709413 0 0 0-36.863979 36.86398 36.709413 36.709413 0 0 0 36.863979 36.863979z m0 182.271896h292.863834a36.709413 36.709413 0 0 0 36.863979-36.863979 36.709413 36.709413 0 0 0-36.863979-36.863979H366.592179a36.709413 36.709413 0 0 0-36.863979 36.863979 36.709413 36.709413 0 0 0 36.863979 36.863979z m0 182.271897h292.863834a36.709413 36.709413 0 0 0 36.863979-36.863979 36.709413 36.709413 0 0 0-36.863979-36.863979H366.592179a36.709413 36.709413 0 0 0-36.863979 36.863979 36.709413 36.709413 0 0 0 36.863979 36.863979z m0 184.319896h292.863834a36.709413 36.709413 0 0 0 36.863979-36.863979 36.709413 36.709413 0 0 0-36.863979-36.863979H366.592179a36.709413 36.709413 0 0 0-36.863979 36.863979 36.709413 36.709413 0 0 0 36.863979 36.863979z" fill="#409EFF" p-id="1177"></path></svg>