<svg class="icon" viewBox="0 0 1024 1024" version="1.1" xmlns="http://www.w3.org/2000/svg" width="128" height="128"><path d="M448 256h469.333333a21.333333 21.333333 0 0 0 0-42.666667H448a21.333333 21.333333 0 0 0 0 42.666667zM917.333333 384H448a21.333333 21.333333 0 0 0 0 42.666667h469.333333a21.333333 21.333333 0 0 0 0-42.666667zM917.333333 597.333333H448a21.333333 21.333333 0 0 0 0 42.666667h469.333333a21.333333 21.333333 0 0 0 0-42.666667zM917.333333 768H448a21.333333 21.333333 0 0 0 0 42.666667h469.333333a21.333333 21.333333 0 0 0 0-42.666667zM320 170.666667H149.333333a64 64 0 0 0-64 64v170.666666a64 64 0 0 0 64 64h170.666667a64 64 0 0 0 64-64v-170.666666a64 64 0 0 0-64-64z m21.333333 234.666666a21.333333 21.333333 0 0 1-21.333333 21.333334H149.333333a21.333333 21.333333 0 0 1-21.333333-21.333334v-170.666666a21.333333 21.333333 0 0 1 21.333333-21.333334h170.666667a21.333333 21.333333 0 0 1 21.333333 21.333334zM320 554.666667H149.333333a64 64 0 0 0-64 64v170.666666a64 64 0 0 0 64 64h170.666667a64 64 0 0 0 64-64v-170.666666a64 64 0 0 0-64-64z m21.333333 234.666666a21.333333 21.333333 0 0 1-21.333333 21.333334H149.333333a21.333333 21.333333 0 0 1-21.333333-21.333334v-170.666666a21.333333 21.333333 0 0 1 21.333333-21.333334h170.666667a21.333333 21.333333 0 0 1 21.333333 21.333334z" fill="#409EFF"/></svg>
