<?xml version="1.0" standalone="no"?><!DOCTYPE svg PUBLIC "-//W3C//DTD SVG 1.1//EN" "http://www.w3.org/Graphics/SVG/1.1/DTD/svg11.dtd"><svg t="1598413296238" class="icon" viewBox="0 0 1024 1024" version="1.1" xmlns="http://www.w3.org/2000/svg" p-id="1651" xmlns:xlink="http://www.w3.org/1999/xlink" width="200" height="200"><defs><style type="text/css"></style></defs><path d="M947.2 1024h-153.6v-51.2h153.6V51.2h-153.6V0h204.8v1024h-51.2zM606.9248 505.4464l228.0448 402.3808h-186.2144l-132.0448-264.8064a238.7968 238.7968 0 0 1-14.7456-52.0192h-1.8944a386.304 386.304 0 0 1-17.1008 53.6064l-132.5056 263.2704H162.816l236.0832-399.36-215.6544-398.7968h190.976l109.7216 244.224A437.0944 437.0944 0 0 1 506.88 419.84h1.8944q9.984-32.4608 24.2176-68.5056l121.1392-241.6128H829.44zM76.8 972.8h153.6v51.2H25.6V0h204.8v51.2H76.8v921.6z" fill="#409EFF" p-id="1652"></path></svg>
